<svg width="15" height="15" viewBox="0 0 15 15" fill="none" xmlns="http://www.w3.org/2000/svg">
<path d="M5.625 3.125H4.375C4.02982 3.125 3.75 3.40482 3.75 3.75V11.25C3.75 11.5952 4.02982 11.875 4.375 11.875H5.625C5.97018 11.875 6.25 11.5952 6.25 11.25V3.75C6.25 3.40482 5.97018 3.125 5.625 3.125Z" fill="#C5C5C5"/>
<path d="M10.625 3.125H9.375C9.02982 3.125 8.75 3.40482 8.75 3.75V11.25C8.75 11.5952 9.02982 11.875 9.375 11.875H10.625C10.9702 11.875 11.25 11.5952 11.25 11.25V3.75C11.25 3.40482 10.9702 3.125 10.625 3.125Z" fill="#C5C5C5"/>
</svg>
